<?xml version="1.0" encoding="UTF-8" standalone="no"?>
<!-- Creator: CorelDRAW X6 -->

<svg
   xmlns:dc="http://purl.org/dc/elements/1.1/"
   xmlns:cc="http://creativecommons.org/ns#"
   xmlns:rdf="http://www.w3.org/1999/02/22-rdf-syntax-ns#"
   xmlns:svg="http://www.w3.org/2000/svg"
   xmlns="http://www.w3.org/2000/svg"
   xmlns:sodipodi="http://sodipodi.sourceforge.net/DTD/sodipodi-0.dtd"
   xmlns:inkscape="http://www.inkscape.org/namespaces/inkscape"
   xml:space="preserve"
   width="4.54166in"
   height="4.54166in"
   version="1.1"
   style="shape-rendering:geometricPrecision; text-rendering:geometricPrecision; image-rendering:optimizeQuality; fill-rule:evenodd; clip-rule:evenodd"
   viewBox="0 0 4542 4542"
   id="svg10"
   sodipodi:docname="facebook.svg"
   inkscape:version="0.92.3 (2405546, 2018-03-11)"><metadata
   id="metadata14"><rdf:RDF><cc:Work
       rdf:about=""><dc:format>image/svg+xml</dc:format><dc:type
         rdf:resource="http://purl.org/dc/dcmitype/StillImage" /></cc:Work></rdf:RDF></metadata><sodipodi:namedview
   pagecolor="#ffffff"
   bordercolor="#666666"
   borderopacity="1"
   objecttolerance="10"
   gridtolerance="10"
   guidetolerance="10"
   inkscape:pageopacity="0"
   inkscape:pageshadow="2"
   inkscape:window-width="1366"
   inkscape:window-height="705"
   id="namedview12"
   showgrid="false"
   inkscape:zoom="0.54128522"
   inkscape:cx="290.05041"
   inkscape:cy="217.99967"
   inkscape:window-x="-8"
   inkscape:window-y="-8"
   inkscape:window-maximized="1"
   inkscape:current-layer="svg10" />
 <defs
   id="defs4">
  <style
   type="text/css"
   id="style2">
   <![CDATA[
    .fil0 {fill:#526198;fill-rule:nonzero}
   ]]>
  </style>
 </defs>
 <g
   id="Layer_x0020_1">
  <metadata
   id="CorelCorpID_0Corel-Layer" />
  <path
   class="fil0"
   d="M611 0c-338,1 -611,274 -611,612l0 3318c0,338 274,612 612,612l1636 0 3 -1623 -422 0c-55,0 -99,-44 -99,-99l-2 -523c0,-55 44,-100 100,-100l421 0 0 -506c0,-587 358,-906 882,-906l429 0c55,0 100,45 100,100l0 441c0,55 -45,100 -99,100l-264 0c-285,0 -340,135 -340,334l0 438 625 0c60,0 106,52 99,111l-62 523c-6,50 -48,88 -99,88l-561 0 -3 1623 974 0c338,0 612,-274 612,-612l0 -3318c0,-338 -274,-612 -611,-612l-3320 0z"
   id="path7" />
 </g>
<path
   style="fill:none;stroke:#000000;stroke-width:10.41744709px;stroke-linecap:butt;stroke-linejoin:miter;stroke-opacity:1"
   d="m 610.99999,1 c 40.113,6.081921 80.10978,12.987218 120.339,18.245762 12.72229,1.662989 25.66102,0 38.49153,0 32.07627,0 64.15254,0 96.22881,0 76.98305,0 153.96607,0 230.94917,0"
   id="path22"
   inkscape:connector-curvature="0" /></svg>